<svg width="100%" height="4" viewBox="0 0 470 34" fill="none" xmlns="http://www.w3.org/2000/svg">
<path d="M469.4 8.8001C465.4 8.8001 460.7 10.8001 457.1 14.2001C452.6 18.6001 446.7 18.5001 442.2 14.1001C438.6 10.6001 434.4 8.6001 429.8 8.6001C425.4 8.6001 421.2 10.5001 417.7 13.8001C413.1 18.0001 407.4 18.0001 402.8 13.8001C399.3 10.5001 395.1 8.6001 390.7 8.6001C386.3 8.6001 382.1 10.5001 378.6 13.8001C374 18.0001 368.3 18.0001 363.7 13.8001C360.2 10.5001 356 8.6001 351.6 8.6001C347.2 8.6001 343 10.5001 339.5 13.8001C334.9 18.0001 329.2 18.0001 324.6 13.8001C321.1 10.5001 316.9 8.6001 312.5 8.6001C308.1 8.6001 303.9 10.5001 300.4 13.8001C295.8 18.0001 290.1 18.0001 285.5 13.8001C282 10.5001 277.8 8.6001 273.4 8.6001C269 8.6001 264.8 10.5001 261.3 13.8001C256.8 18.0001 251 18.0001 246.4 13.8001C242.9 10.5001 238.7 8.6001 234.3 8.6001C229.9 8.6001 225.7 10.5001 222.2 13.8001C217.6 18.0001 211.9 18.0001 207.3 13.8001C203.8 10.5001 199.6 8.6001 195.2 8.6001C190.8 8.6001 186.6 10.5001 183.1 13.8001C178.6 18.0001 172.8 18.0001 168.2 13.8001C164.7 10.5001 160.5 8.6001 156.1 8.6001C151.5 8.6001 147.2 10.7001 143.6 14.1001C139.1 18.5001 133.2 18.4001 128.6 14.1001C125 10.6001 120.7 8.6001 116.1 8.6001C111.7 8.6001 107.5 10.5001 104 13.8001C99.4 18.0001 93.7 18.0001 89.1 13.8001C85.6 10.5001 81.4 8.6001 77 8.6001C72.6 8.6001 68.4 10.5001 64.9 13.8001C60.3 18.0001 54.6 18.0001 50 13.8001C46.5 10.5001 42.3 8.6001 37.9 8.6001C33.5 8.6001 29.3 10.5001 25.8 13.8001C21.3 18.0001 16.1 18.2001 11.6 14.0001C8.1 10.7001 4 8.8001 0 8.7001V16.2001C4 16.3001 8 18.1001 11.5 21.3001C16.1 25.5001 21.5 25.5001 26.1 21.3001C29.6 18.0001 33.7 16.2001 38.1 16.2001C42.5 16.2001 46.6 18.1001 50.2 21.3001C54.8 25.5001 60.5 25.5001 65.1 21.3001C68.6 18.0001 72.8 16.2001 77.2 16.2001C81.6 16.2001 85.8 18.1001 89.3 21.3001C93.9 25.5001 99.6 25.5001 104.2 21.3001C107.7 18.0001 111.9 16.2001 116.3 16.2001C120.9 16.2001 125.2 18.2001 128.8 21.7001C133.3 26.1001 139.2 26.1001 143.8 21.7001C147.4 18.2001 151.7 16.2001 156.3 16.2001C160.7 16.2001 164.9 18.1001 168.4 21.3001C172.9 25.5001 178.7 25.5001 183.3 21.3001C186.8 18.0001 191 16.2001 195.4 16.2001C199.8 16.2001 204 18.1001 207.5 21.3001C212.1 25.5001 217.8 25.5001 222.4 21.3001C225.9 18.0001 230.1 16.2001 234.5 16.2001C238.9 16.2001 243.1 18.1001 246.6 21.3001C251.1 25.5001 256.9 25.5001 261.5 21.3001C265 18.0001 269.2 16.2001 273.6 16.2001C278 16.2001 282.2 18.1001 285.7 21.3001C290.2 25.5001 296 25.5001 300.6 21.3001C304.1 18.0001 308.3 16.2001 312.7 16.2001C317.1 16.2001 321.3 18.1001 324.8 21.3001C329.4 25.5001 335.1 25.5001 339.7 21.3001C343.2 18.0001 347.4 16.2001 351.8 16.2001C356.2 16.2001 360.4 18.1001 363.9 21.3001C368.5 25.5001 374.2 25.5001 378.8 21.3001C382.3 18.0001 386.5 16.2001 390.9 16.2001C395.3 16.2001 399.5 18.1001 403 21.3001C407.6 25.5001 413.3 25.5001 417.9 21.3001C421.4 18.0001 425.6 16.2001 430 16.2001C434.6 16.2001 438.9 18.2001 442.5 21.7001C447 26.1001 452.8 26.1001 457.4 21.7001C461 18.3001 465.7 16.3001 469.7 16.2001L469.4 8.8001Z" fill="#10B0C1"/>
<path d="M469.4 0.3C465.4 0.3 460.7 2.3 457.1 5.7C452.6 10.1 446.7 10.3 442.2 5.9C438.6 2.4 434.4 0.6 429.8 0.6C425.4 0.6 421.2 2.3 417.7 5.5C413.1 9.7 407.4 9.8 402.8 5.6C399.3 2.3 395.1 0.6 390.7 0.6C386.3 0.6 382.1 2.3 378.6 5.5C374 9.7 368.3 9.8 363.7 5.6C360.2 2.3 356 0.6 351.6 0.6C347.2 0.6 343 2.3 339.5 5.5C334.9 9.7 329.2 9.8 324.6 5.6C321.1 2.3 316.9 0.6 312.5 0.6C308.1 0.6 303.9 2.3 300.4 5.5C295.8 9.7 290.1 9.8 285.5 5.6C282 2.3 277.8 0.6 273.4 0.6C269 0.6 264.8 2.3 261.3 5.5C256.8 9.7 251 9.8 246.4 5.6C242.9 2.3 238.7 0.6 234.3 0.6C229.9 0.6 225.7 2.3 222.2 5.5C217.6 9.7 211.9 9.8 207.3 5.6C203.8 2.3 199.6 0.6 195.2 0.6C190.8 0.6 186.6 2.3 183.1 5.5C178.6 9.7 172.8 9.8 168.2 5.6C164.7 2.3 160.5 0.6 156.1 0.6C151.5 0.6 147.2 2.4 143.6 5.8C139.1 10.2 133.2 10.3 128.6 5.9C125 2.4 120.7 0.5 116.1 0.5C111.7 0.5 107.5 2.2 104 5.4C99.4 9.6 93.7 9.7 89.1 5.5C85.6 2.2 81.4 0.5 77 0.5C72.6 0.5 68.4 2.2 64.9 5.4C60.3 9.6 54.6 9.7 50 5.5C46.5 2.2 42.3 0.5 37.9 0.5C33.5 0.5 29.3 2.2 25.8 5.4C21.3 9.6 16.1 9.7 11.6 5.4C8.1 2.1 4 0.1 0 0V7.5C4 7.6 8 9.4 11.5 12.6C16.1 16.8 21.5 16.8 26.1 12.6C29.6 9.3 33.7 7.5 38.1 7.5C42.5 7.5 46.6 9.4 50.2 12.6C54.8 16.8 60.5 16.8 65.1 12.6C68.6 9.3 72.8 7.5 77.2 7.5C81.6 7.5 85.8 9.4 89.3 12.6C93.9 16.8 99.6 16.8 104.2 12.6C107.7 9.3 111.9 7.5 116.3 7.5C120.9 7.5 125.2 9.5 128.8 13C133.3 17.4 139.2 17.4 143.8 13C147.4 9.5 151.7 7.5 156.3 7.5C160.7 7.5 164.9 9.4 168.4 12.6C172.9 16.8 178.7 16.8 183.3 12.6C186.8 9.3 191 7.5 195.4 7.5C199.8 7.5 204 9.4 207.5 12.6C212.1 16.8 217.8 16.8 222.4 12.6C225.9 9.3 230.1 7.5 234.5 7.5C238.9 7.5 243.1 9.4 246.6 12.6C251.1 16.8 256.9 16.8 261.5 12.6C265 9.3 269.2 7.5 273.6 7.5C278 7.5 282.2 9.4 285.7 12.6C290.2 16.8 296 16.8 300.6 12.6C304.1 9.3 308.3 7.5 312.7 7.5C317.1 7.5 321.3 9.4 324.8 12.6C329.4 16.8 335.1 16.8 339.7 12.6C343.2 9.3 347.4 7.5 351.8 7.5C356.2 7.5 360.4 9.4 363.9 12.6C368.5 16.8 374.2 16.8 378.8 12.6C382.3 9.3 386.5 7.5 390.9 7.5C395.3 7.5 399.5 9.4 403 12.6C407.6 16.8 413.3 16.8 417.9 12.6C421.4 9.3 425.6 7.5 430 7.5C434.6 7.5 438.9 9.5 442.5 13C447 17.4 452.8 17.4 457.4 13C461 9.6 465.7 7.6 469.7 7.5L469.4 0.3Z" fill="#15DBE5"/>
<path d="M469.4 17.4002C465.4 17.4002 460.7 19.4002 457.1 22.8002C452.6 27.2002 446.7 27.4002 442.2 23.0002C438.6 19.5002 434.4 17.7002 429.8 17.7002C425.4 17.7002 421.2 19.4002 417.7 22.6002C413.1 26.8002 407.4 26.9002 402.8 22.7002C399.3 19.4002 395.1 17.7002 390.7 17.7002C386.3 17.7002 382.1 19.4002 378.6 22.6002C374 26.8002 368.3 26.9002 363.7 22.7002C360.2 19.4002 356 17.7002 351.6 17.7002C347.2 17.7002 343 19.4002 339.5 22.6002C334.9 26.8002 329.2 26.9002 324.6 22.7002C321.1 19.4002 316.9 17.7002 312.5 17.7002C308.1 17.7002 303.9 19.4002 300.4 22.6002C295.8 26.8002 290.1 26.9002 285.5 22.7002C282 19.4002 277.8 17.7002 273.4 17.7002C269 17.7002 264.8 19.4002 261.3 22.6002C256.8 26.8002 251 26.9002 246.4 22.7002C242.9 19.4002 238.7 17.7002 234.3 17.7002C229.9 17.7002 225.7 19.4002 222.2 22.6002C217.6 26.8002 211.9 26.9002 207.3 22.7002C203.8 19.4002 199.6 17.7002 195.2 17.7002C190.8 17.7002 186.6 19.4002 183.1 22.6002C178.6 26.8002 172.8 26.9002 168.2 22.7002C164.7 19.4002 160.5 17.7002 156.1 17.7002C151.5 17.7002 147.2 19.5002 143.6 23.0002C139.1 27.4002 133.2 27.5002 128.6 23.1002C125 19.6002 120.7 17.7002 116.1 17.7002C111.7 17.7002 107.5 19.4002 104 22.6002C99.4 26.8002 93.7 26.9002 89.1 22.7002C85.6 19.4002 81.4 17.7002 77 17.7002C72.6 17.7002 68.4 19.4002 64.9 22.6002C60.3 26.8002 54.6 26.9002 50 22.7002C46.5 19.4002 42.3 17.7002 37.9 17.7002C33.5 17.7002 29.3 19.4002 25.8 22.6002C21.3 26.8002 16.1 26.9002 11.6 22.6002C8.1 19.3002 4 17.3002 0 17.2002V24.7002C4 24.8002 8 26.6002 11.5 29.8002C16.1 34.0002 21.5 34.0002 26.1 29.8002C29.6 26.5002 33.7 24.7002 38.1 24.7002C42.5 24.7002 46.6 26.6002 50.2 29.8002C54.8 34.0002 60.5 34.0002 65.1 29.8002C68.6 26.5002 72.8 24.7002 77.2 24.7002C81.6 24.7002 85.8 26.6002 89.3 29.8002C93.9 34.0002 99.6 34.0002 104.2 29.8002C107.7 26.5002 111.9 24.7002 116.3 24.7002C120.9 24.7002 125.2 26.7002 128.8 30.2002C133.3 34.6002 139.2 34.6002 143.8 30.2002C147.4 26.7002 151.7 24.7002 156.3 24.7002C160.7 24.7002 164.9 26.6002 168.4 29.8002C172.9 34.0002 178.7 34.0002 183.3 29.8002C186.8 26.5002 191 24.7002 195.4 24.7002C199.8 24.7002 204 26.6002 207.5 29.8002C212.1 34.0002 217.8 34.0002 222.4 29.8002C225.9 26.5002 230.1 24.7002 234.5 24.7002C238.9 24.7002 243.1 26.6002 246.6 29.8002C251.1 34.0002 256.9 34.0002 261.5 29.8002C265 26.5002 269.2 24.7002 273.6 24.7002C278 24.7002 282.2 26.6002 285.7 29.8002C290.2 34.0002 296 34.0002 300.6 29.8002C304.1 26.5002 308.3 24.7002 312.7 24.7002C317.1 24.7002 321.3 26.6002 324.8 29.8002C329.4 34.0002 335.1 34.0002 339.7 29.8002C343.2 26.5002 347.4 24.7002 351.8 24.7002C356.2 24.7002 360.4 26.6002 363.9 29.8002C368.5 34.0002 374.2 34.0002 378.8 29.8002C382.3 26.5002 386.5 24.7002 390.9 24.7002C395.3 24.7002 399.5 26.6002 403 29.8002C407.6 34.0002 413.3 34.0002 417.9 29.8002C421.4 26.5002 425.6 24.7002 430 24.7002C434.6 24.7002 438.9 26.7002 442.5 30.2002C447 34.6002 452.8 34.6002 457.4 30.2002C461 26.8002 465.7 24.8002 469.7 24.7002L469.4 17.4002Z" fill="#0B8AAD"/>
</svg>
