<svg width="112" height="112" viewBox="0 0 112 112" fill="none" xmlns="http://www.w3.org/2000/svg">
<circle cx="56" cy="56" r="56" fill="#EF6D58"/>
<path fill-rule="evenodd" clip-rule="evenodd" d="M56.0007 37.3335C50.9295 37.3335 50.298 37.3553 48.3038 37.4486C41.5215 37.7597 37.7571 41.5211 37.446 48.3033C37.3558 50.2975 37.334 50.9322 37.334 56.0002C37.334 61.0713 37.3558 61.7059 37.446 63.6971C37.7571 70.4762 41.5215 74.2437 48.3038 74.5548C50.298 74.645 50.9295 74.6668 56.0007 74.6668C61.0718 74.6668 61.7064 74.645 63.7006 74.5548C70.4704 74.2437 74.2504 70.4824 74.5553 63.6971C74.6455 61.7059 74.6673 61.0713 74.6673 56.0002C74.6673 50.9322 74.6455 50.2975 74.5553 48.3033C74.2504 41.5304 70.4829 37.7566 63.7006 37.4486C61.7064 37.3553 61.0718 37.3335 56.0007 37.3335ZM56.0008 40.6996C60.9848 40.6996 61.5759 40.7183 63.5453 40.8085C68.607 41.0387 70.9653 43.4374 71.1986 48.4587C71.2857 50.4281 71.3044 51.0161 71.3044 56.0001C71.3044 60.9841 71.2857 61.5752 71.1986 63.5414C70.9653 68.5596 68.6102 70.9645 63.5453 71.1947C61.5759 71.2818 60.9879 71.3036 56.0008 71.3036C51.0168 71.3036 50.4257 71.285 48.4595 71.1947C43.3884 70.9614 41.0395 68.5534 40.8062 63.5414C40.719 61.5752 40.6973 60.9841 40.6973 56.0001C40.6973 51.0161 40.719 50.425 40.8062 48.4587C41.0364 43.4343 43.3946 41.0356 48.4595 40.8054C50.4257 40.7152 51.0168 40.6996 56.0008 40.6996ZM46.4144 56.0004C46.4144 50.7053 50.7077 46.415 55.9997 46.415C61.2917 46.415 65.5851 50.7084 65.5851 56.0004C65.5851 61.2955 61.2917 65.5857 55.9997 65.5857C50.7077 65.5857 46.4144 61.2955 46.4144 56.0004ZM55.9999 62.2222C52.5621 62.2222 49.7777 59.4378 49.7777 56C49.7777 52.5653 52.5621 49.7778 55.9999 49.7778C59.4346 49.7778 62.2252 52.5622 62.2252 56C62.2252 59.4378 59.4346 62.2222 55.9999 62.2222ZM63.723 46.0386C63.723 44.8004 64.7279 43.7986 65.963 43.7986C67.2043 43.7986 68.2061 44.8004 68.2061 46.0386C68.2061 47.2768 67.2012 48.2786 65.963 48.2786C64.7248 48.2786 63.723 47.2737 63.723 46.0386Z" fill="white"/>
</svg>
