<svg width="112" height="112" viewBox="0 0 112 112" fill="none" xmlns="http://www.w3.org/2000/svg">
<circle cx="56" cy="56" r="56" fill="#EF6D58"/>
<path d="M74.6663 45.5933C73.2943 46.2031 71.8166 46.6138 70.2672 46.8004C71.8508 45.8516 73.061 44.352 73.6366 42.5631C72.1557 43.4404 70.5161 44.0782 68.7708 44.4204C67.377 42.9302 65.3828 42 63.1832 42C58.2366 42 54.6028 46.6138 55.7197 51.4049C49.3575 51.0844 43.7108 48.0356 39.9339 43.4031C37.9272 46.844 38.8948 51.3489 42.3046 53.6293C41.0508 53.5889 39.8717 53.2436 38.8388 52.6711C38.7548 56.2178 41.2997 59.5373 44.9832 60.2778C43.9068 60.5702 42.7246 60.6387 41.5237 60.4084C42.4975 63.4511 45.3317 65.6631 48.6792 65.7253C45.453 68.2516 41.3992 69.3809 37.333 68.9018C40.7241 71.0764 44.7468 72.3427 49.0712 72.3427C63.2952 72.3427 71.3281 60.3307 70.8428 49.5569C72.3423 48.4804 73.6397 47.1302 74.6663 45.5933V45.5933Z" fill="white"/>
</svg>
